<?xml version="1.0" encoding="UTF-8" standalone="no"?>
<svg
   xmlns:dc="http://purl.org/dc/elements/1.1/"
   xmlns:cc="http://creativecommons.org/ns#"
   xmlns:rdf="http://www.w3.org/1999/02/22-rdf-syntax-ns#"
   xmlns:svg="http://www.w3.org/2000/svg"
   xmlns="http://www.w3.org/2000/svg"
   xmlns:sodipodi="http://sodipodi.sourceforge.net/DTD/sodipodi-0.dtd"
   xmlns:inkscape="http://www.inkscape.org/namespaces/inkscape"
   version="1.1"
   id="svg4409"
   viewBox="0 0 525.45201 481.10936"
   height="135.77975mm"
   width="148.29424mm"
   inkscape:version="0.91 r13725"
   sodipodi:docname="ciShadow.svg">
  <sodipodi:namedview
     pagecolor="#ffffff"
     bordercolor="#666666"
     borderopacity="1"
     objecttolerance="10"
     gridtolerance="10"
     guidetolerance="10"
     inkscape:pageopacity="0"
     inkscape:pageshadow="2"
     inkscape:window-width="1920"
     inkscape:window-height="1056"
     id="namedview5104"
     showgrid="false"
     inkscape:zoom="0.93665754"
     inkscape:cx="177.73899"
     inkscape:cy="86.885957"
     inkscape:window-x="0"
     inkscape:window-y="24"
     inkscape:window-maximized="1"
     inkscape:current-layer="svg4409" />
  <defs
     id="defs4411" />
  <metadata
     id="metadata4414">
    <rdf:RDF>
      <cc:Work
         rdf:about="">
        <dc:format>image/svg+xml</dc:format>
        <dc:type
           rdf:resource="http://purl.org/dc/dcmitype/StillImage" />
        <dc:title />
      </cc:Work>
    </rdf:RDF>
  </metadata>
  <path
     inkscape:connector-curvature="0"
     id="path60"
     style="fill:#ffffff;fill-opacity:0.84705883;fill-rule:evenodd;stroke:none"
     d="m 482.66134,481.10932 -439.869336,0 C 19.15827,481.10932 0,461.95066 0,438.31732 L 0,42.78933 C 0,19.15733 19.15827,0 42.792004,0 L 482.66134,0 C 506.29333,0 525.452,19.15733 525.452,42.78933 l 0,395.52799 c 0,23.63334 -19.15867,42.792 -42.79066,42.792" />
  <path
     inkscape:connector-curvature="0"
     id="path62"
     style="fill:#b5bdb8;fill-opacity:0.94117647;fill-rule:nonzero;stroke:none"
     d="m 482.66134,481.10932 -170.54,0 c -0.12667,-0.12666 -0.26667,-0.23733 -0.38667,-0.37066 -0.50933,-0.508 -0.948,-1.08267 -1.32266,-1.7 -0.78,-0.46 -1.48134,-1.036 -2.084,-1.70667 -0.508,-0.508 -0.948,-1.08133 -1.32267,-1.69867 -0.78,-0.46 -1.48133,-1.03733 -2.084,-1.708 -0.508,-0.50666 -0.94667,-1.08133 -1.32133,-1.69866 -0.78,-0.46 -1.48134,-1.036 -2.084,-1.70667 -0.508,-0.50667 -0.948,-1.08133 -1.32134,-1.69867 -0.78133,-0.46 -1.48133,-1.036 -2.084,-1.70666 -0.50933,-0.508 -0.948,-1.08134 -1.32266,-1.69867 -0.78,-0.46 -1.48134,-1.03733 -2.084,-1.708 -0.508,-0.50667 -0.948,-1.08133 -1.32134,-1.69867 -0.78133,-0.46 -1.48133,-1.036 -2.084,-1.70666 -0.508,-0.508 -0.948,-1.08134 -1.32266,-1.69867 -0.78,-0.46133 -1.48134,-1.03733 -2.084,-1.708 -0.508,-0.508 -0.948,-1.08133 -1.32134,-1.69867 -0.78133,-0.46 -1.48133,-1.036 -2.084,-1.70666 -0.508,-0.508 -0.948,-1.08134 -1.32266,-1.7 -0.78,-0.45867 -1.48134,-1.036 -2.08267,-1.70534 -0.50933,-0.508 -0.948,-1.08266 -1.32267,-1.7 -0.78,-0.46 -1.48133,-1.036 -2.084,-1.70666 -0.508,-0.50667 -0.948,-1.08134 -1.32266,-1.69867 -0.78,-0.46 -1.48,-1.03733 -2.084,-1.708 -0.508,-0.50667 -0.94667,-1.08133 -1.32134,-1.69867 -0.78,-0.46 -1.48133,-1.036 -2.084,-1.70666 -0.508,-0.508 -0.948,-1.08134 -1.32266,-1.69867 -0.78,-0.46 -1.48,-1.03733 -2.08267,-1.70667 -0.50933,-0.508 -0.948,-1.08266 -1.32267,-1.7 -0.78,-0.45866 -1.48133,-1.036 -2.084,-1.70533 -0.508,-0.508 -0.948,-1.08267 -1.32266,-1.7 -0.78,-0.46 -1.48,-1.036 -2.08267,-1.70667 -0.50933,-0.508 -0.948,-1.08133 -1.32267,-1.69866 -0.78,-0.46134 -1.48133,-1.03734 -2.084,-1.708 -0.508,-0.50667 -0.948,-1.08134 -1.32133,-1.69867 -0.78133,-0.46 -1.48133,-1.03733 -2.08533,-1.70667 -0.508,-0.508 -0.94667,-1.08133 -1.32134,-1.7 -0.78,-0.46 -1.48133,-1.036 -2.08266,-1.70666 -0.50934,-0.50667 -0.94934,-1.08134 -1.32267,-1.69867 -0.78133,-0.46 -1.48133,-1.036 -2.084,-1.70667 -0.508,-0.50666 -0.948,-1.08133 -1.32267,-1.7 -0.78,-0.45866 -1.48133,-1.036 -2.08266,-1.70533 -0.50934,-0.508 -0.948,-1.08133 -1.32267,-1.7 -0.78,-0.46 -1.48133,-1.036 -2.084,-1.70667 -0.50933,-0.508 -0.948,-1.08133 -1.32267,-1.69866 -0.78,-0.46 -1.48133,-1.03734 -2.084,-1.708 -0.508,-0.50667 -0.94666,-1.08134 -1.32133,-1.69867 -0.78,-0.46 -1.48133,-1.036 -2.084,-1.70667 -0.508,-0.508 -0.948,-1.08133 -1.32267,-1.69866 -0.78,-0.46 -1.48,-1.03734 -2.08266,-1.70667 -0.50934,-0.508 -0.948,-1.08267 -1.32267,-1.7 -0.78,-0.45867 -1.48133,-1.036 -2.084,-1.70533 -0.508,-0.508 -0.948,-1.08267 -1.32267,-1.7 -0.78,-0.46 -1.48133,-1.03734 -2.08266,-1.70667 -0.50934,-0.508 -0.948,-1.08133 -1.32267,-1.69867 -0.78,-0.46133 -1.48133,-1.03733 -2.084,-1.708 -0.508,-0.508 -0.948,-1.08133 -1.32133,-1.69866 -0.78133,-0.46 -1.48133,-1.036 -2.084,-1.70667 -0.508,-0.508 -0.948,-1.08133 -1.32267,-1.7 -0.78,-0.45867 -1.48133,-1.036 -2.08266,-1.70667 -0.50934,-0.50666 -0.94934,-1.08133 -1.32267,-1.69866 -0.78133,-0.46 -1.48133,-1.036 -2.084,-1.70667 -0.508,-0.50667 -0.948,-1.08133 -1.32267,-1.7 -0.78,-0.45867 -1.48133,-1.036 -2.084,-1.70667 -0.508,-0.50666 -0.94666,-1.08133 -1.32133,-1.69866 -0.78,-0.46 -1.48133,-1.036 -2.084,-1.70667 -0.50933,-0.508 -0.948,-1.08133 -1.32267,-1.69867 -0.78,-0.46 -1.48,-1.03733 -2.084,-1.70666 -0.576,-0.576 -1.06933,-1.232 -1.472,-1.94667 -1.424,-0.8 -2.604,-1.98267 -3.40533,-3.40533 -1.424,-0.80134 -2.60533,-1.98267 -3.40667,-3.40667 -1.424,-0.80133 -2.60533,-1.98267 -3.40533,-3.40667 -1.424,-0.8 -2.60533,-1.98133 -3.40667,-3.40533 -1.424,-0.80133 -2.60533,-1.98266 -3.40533,-3.40533 -1.424,-0.80133 -2.60533,-1.98267 -3.40667,-3.40667 -1.42266,-0.8 -2.604,-1.98133 -3.40533,-3.40533 -1.424,-0.80133 -2.60533,-1.98267 -3.40533,-3.40667 -1.424,-0.8 -2.60534,-1.98133 -3.40667,-3.40533 -1.424,-0.80133 -2.60533,-1.98267 -3.40533,-3.40533 -1.424,-0.80134 -2.60534,-1.98267 -3.40667,-3.40667 -1.424,-0.80133 -2.60533,-1.98267 -3.40533,-3.40533 -1.424,-0.80134 -2.60534,-1.98267 -3.40667,-3.40667 -1.424,-0.80133 -2.60533,-1.98267 -3.40533,-3.40533 -1.424,-0.80134 -2.60534,-1.98267 -3.40667,-3.40667 -1.424,-0.80133 -2.604,-1.98267 -3.40533,-3.40533 -1.424,-0.80134 -2.60534,-1.98267 -3.40667,-3.40667 -1.42267,-0.8 -2.604,-1.98133 -3.40533,-3.40533 -2.70534,-1.52134 -4.54267,-4.41734 -4.54267,-7.72934 0,-4.81866 3.984,-8.804 8.86533,-8.804 l 16.71334,0 c -0.21734,-0.29333 -0.42134,-0.59733 -0.6,-0.91866 -1.424,-0.8 -2.60534,-1.98134 -3.40667,-3.40534 -1.424,-0.80133 -2.60533,-1.98266 -3.40533,-3.40533 -1.424,-0.80133 -2.60534,-1.98267 -3.40667,-3.40667 -1.424,-0.80133 -2.60533,-1.98266 -3.40533,-3.40533 -1.424,-0.80133 -2.60534,-1.98267 -3.40667,-3.40667 -1.42267,-0.80133 -2.604,-1.98266 -3.40533,-3.40533 -2.70534,-1.52133 -4.54267,-4.41733 -4.54267,-7.72933 0,-4.896 3.984,-8.80267 8.86533,-8.80267 l 16.71334,0 c -0.21734,-0.29467 -0.42134,-0.59867 -0.6,-0.91867 -1.424,-0.80133 -2.60534,-1.98266 -3.40667,-3.40666 -1.424,-0.8 -2.60533,-1.98134 -3.40533,-3.40534 -1.424,-0.80133 -2.60534,-1.98266 -3.40667,-3.40533 -1.424,-0.80133 -2.60533,-1.98267 -3.40533,-3.40667 -1.424,-0.80133 -2.60534,-1.98266 -3.40667,-3.40666 -1.424,-0.8 -2.60533,-1.98134 -3.40533,-3.40534 -2.70534,-1.52133 -4.54267,-4.416 -4.54267,-7.728 0,-4.89599 3.984,-8.81999 8.86533,-8.81999 l 16.70134,0 c -0.21334,-0.28934 -0.412,-0.588 -0.588,-0.90267 -1.424,-0.80133 -2.60534,-1.98133 -3.40667,-3.40533 -1.424,-0.80134 -2.60533,-1.98267 -3.40533,-3.40667 -1.424,-0.80133 -2.60534,-1.98267 -3.40667,-3.40533 -1.424,-0.80134 -2.60533,-1.98267 -3.40533,-3.40667 -1.424,-0.80133 -2.60534,-1.98267 -3.40667,-3.40533 -1.424,-0.80134 -2.60533,-1.98267 -3.40533,-3.40667 -2.70534,-1.52133 -4.54267,-4.416 -4.54267,-7.728 0,-4.896 3.984,-8.81867 8.86533,-8.81867 l 26.488,0 c 3.32,0 6.22267,1.84667 7.74134,4.548 1.42533,0.804 2.608,1.98534 3.40666,3.40667 1.42534,0.80267 2.60667,1.98533 3.40534,3.40533 1.42533,0.804 2.608,1.98534 3.40666,3.40667 1.35334,0.76267 2.48267,1.86933 3.276,3.19467 l 0,-26.348 0.124,-0.0613 26.232,0 c -1.30533,-0.79066 -2.38933,-1.90666 -3.14,-3.24266 -1.42533,-0.79467 -2.604,-1.97867 -3.40533,-3.40534 -1.42667,-0.79466 -2.604,-1.97866 -3.40533,-3.40666 -1.42667,-0.79467 -2.60534,-1.97867 -3.40667,-3.40534 -2.71733,-1.51466 -4.55067,-4.432 -4.55067,-7.77733 l 0,-26.472 c 0,-4.896 3.924,-8.88133 8.804,-8.88133 3.31867,0 6.20667,1.83333 7.72667,4.53733 1.424,0.79867 2.604,1.98 3.40533,3.40533 1.42534,0.8 2.60534,1.98134 3.40667,3.40534 1.424,0.8 2.604,1.98133 3.40533,3.40666 1.424,0.8 2.60533,1.98134 3.40533,3.40534 1.42534,0.8 2.60534,1.98133 3.40667,3.40666 1.424,0.79867 2.60533,1.98134 3.40533,3.40534 0.32134,0.18 0.62667,0.384 0.92134,0.60133 l 0,-16.692 c 0,-4.896 3.98533,-8.88133 8.86533,-8.88133 3.30933,0 6.168,1.82266 7.67733,4.51333 1.428,0.796 2.60534,1.97867 3.40667,3.40667 1.42667,0.796 2.60533,1.97866 3.40533,3.40533 1.428,0.796 2.60534,1.97867 3.40534,3.40667 1.428,0.79466 2.60533,1.97866 3.40666,3.40533 1.42667,0.796 2.60534,1.97867 3.40534,3.40533 1.428,0.796 2.60666,1.98 3.40666,3.40667 0.31734,0.17733 0.61734,0.37733 0.908,0.59067 l 0,-16.65867 c 0,-4.896 3.98534,-8.88133 8.86534,-8.88133 3.27333,0 6.15066,1.82933 7.672,4.528 1.42133,0.79733 2.60266,1.98 3.40666,3.40533 1.42,0.79867 2.60134,1.98 3.40534,3.40533 1.42133,0.79867 2.60266,1.98134 3.40666,3.40667 1.42,0.79867 2.60134,1.98 3.40534,3.40533 1.42133,0.79867 2.60266,1.98134 3.40666,3.40667 1.42,0.79867 2.60134,1.98 3.40534,3.40667 0.31866,0.17733 0.62133,0.38 0.91333,0.596 l 0,-16.67867 c 0,-4.896 3.984,-8.88133 8.88133,-8.88133 3.308,0 6.20134,1.83466 7.724,4.54 1.42267,0.8 2.604,1.98133 3.40534,3.40666 1.424,0.8 2.60533,1.98134 3.40666,3.40534 1.42267,0.8 2.604,1.98133 3.40534,3.40666 1.424,0.8 2.604,1.98134 3.40666,3.40534 1.42267,0.8 2.604,1.98133 3.40534,3.40533 1.424,0.80133 2.604,1.98133 3.40666,3.40667 1.42267,0.8 2.604,1.98133 3.40534,3.40533 1.42266,0.80133 2.604,1.98133 3.40533,3.40667 1.424,0.8 2.60533,1.98133 3.40666,3.40533 1.424,0.80133 2.604,1.98133 3.40667,3.40667 1.42267,0.8 2.604,1.98133 3.40533,3.40533 1.42267,0.8 2.604,1.98133 3.40534,3.40667 1.424,0.8 2.604,1.98133 3.40666,3.40533 1.42267,0.8 2.604,1.98133 3.40534,3.40667 1.424,0.8 2.60533,1.98133 3.40666,3.40533 1.42267,0.8 2.604,1.98133 3.40534,3.40533 1.424,0.80134 2.604,1.98134 3.40666,3.40667 1.42267,0.8 2.604,1.98133 3.40534,3.40533 0.96666,0.544 1.824,1.26 2.52533,2.112 0.38533,0.42534 0.728,0.888 1.02533,1.38267 0.90667,0.532 1.716,1.21467 2.38,2.02267 0.38534,0.42666 0.72934,0.88933 1.02534,1.38266 0.90666,0.53334 1.716,1.21467 2.38133,2.024 0.38533,0.42534 0.728,0.888 1.02533,1.38267 0.90534,0.532 1.71467,1.21467 2.38,2.02267 0.38534,0.42666 0.72934,0.888 1.02667,1.38266 0.90533,0.53334 1.71467,1.21467 2.37867,2.02267 0.38666,0.42667 0.72933,0.88933 1.02666,1.384 0.90667,0.532 1.71467,1.21467 2.38,2.02267 0.38534,0.42666 0.72934,0.888 1.02534,1.38266 0.90666,0.53334 1.716,1.21467 2.38133,2.024 0.38533,0.42534 0.728,0.888 1.02533,1.38134 0.90667,0.53333 1.71467,1.216 2.38,2.024 0.38534,0.42666 0.72934,0.888 1.02534,1.38266 0.90666,0.53334 1.716,1.21467 2.38,2.02267 0.38533,0.42667 0.72933,0.888 1.02666,1.384 0.90534,0.532 1.71467,1.21333 2.38,2.02267 0.38534,0.42533 0.728,0.888 1.02534,1.38266 0.90666,0.532 1.716,1.21467 2.38,2.02267 0.38666,0.42667 0.72933,0.88933 1.02533,1.384 0.90667,0.532 1.716,1.21333 2.38133,2.02267 0.38534,0.42533 0.72934,0.888 1.02534,1.38266 0.90666,0.532 1.716,1.21467 2.38,2.02267 0.38533,0.42667 0.72933,0.88933 1.02666,1.38267 0.90534,0.53333 1.71467,1.21466 2.38,2.02399 0.38534,0.42534 0.728,0.888 1.02534,1.38267 0.90533,0.532 1.71466,1.21467 2.38,2.02267 0.38533,0.42666 0.72933,0.888 1.02666,1.38266 0.90534,0.53334 1.71467,1.21467 2.38,2.024 0.38534,0.42534 0.728,0.888 1.02534,1.38267 0.90666,0.532 1.71466,1.21467 2.38,2.02267 0.38533,0.42666 0.72933,0.888 1.02533,1.38266 0.90667,0.53334 1.716,1.21467 2.38133,2.024 0.38534,0.42534 0.728,0.888 1.02534,1.38267 0.90666,0.532 1.71466,1.21467 2.38,2.02267 0.38533,0.42666 0.72933,0.888 1.02533,1.38266 0.90667,0.53334 1.716,1.21467 2.38,2.02267 0.38533,0.42667 0.72933,0.88933 1.02667,1.384 0.90533,0.532 1.71466,1.21467 2.38,2.02267 0.38533,0.42666 0.72933,0.888 1.02533,1.38266 0.90667,0.532 1.716,1.21467 2.38,2.02267 0.38667,0.42667 0.72933,0.88933 1.02533,1.38267 0.90667,0.53333 1.716,1.21466 2.38134,2.024 0.38533,0.42666 0.72933,0.888 1.02533,1.38266 0.90667,0.532 1.71467,1.21467 2.38,2.02267 0.38533,0.42667 0.72933,0.88933 1.02667,1.38267 0.90533,0.53333 1.71466,1.21466 2.37866,2.02266 0.38667,0.42667 0.72934,0.88934 1.02667,1.384 0.90667,0.532 1.716,1.21467 2.38,2.02267 0.38533,0.42667 0.72933,0.888 1.02667,1.38267 0.90533,0.53333 1.71466,1.21466 2.38,2.024 0.38533,0.42533 0.728,0.888 1.02533,1.38266 0.90667,0.532 1.71467,1.21467 2.38,2.02267 0.38533,0.42667 0.72933,0.888 1.02533,1.38267 0.90667,0.53333 1.716,1.21466 2.38,2.02266 0.38667,0.42667 0.72934,0.88934 1.02667,1.384 0.90667,0.532 1.71466,1.21467 2.38,2.02267 0.38533,0.42667 0.72933,0.888 1.02533,1.38267 0.90667,0.53333 1.716,1.21466 2.38,2.02266 0.38533,0.42667 0.72933,0.88934 1.02667,1.384 0.90533,0.532 1.71466,1.21467 2.38,2.02267 0.38533,0.42667 0.72933,0.888 1.02533,1.38267 0.90667,0.532 1.716,1.21466 2.38133,2.024 0.38534,0.42533 0.728,0.888 1.024,1.38266 0.90667,0.532 1.716,1.21334 2.38134,2.02267 0.38533,0.42533 0.72933,0.888 1.02533,1.38267 0.90667,0.532 1.71467,1.21466 2.38,2.02266 0.38533,0.42667 0.72933,0.88934 1.02667,1.38267 0.90533,0.53333 1.71466,1.21467 2.37866,2.02267 0.38667,0.42666 0.72934,0.88933 1.02667,1.384 0.90667,0.532 1.716,1.21466 2.38,2.02266 0.38533,0.42667 0.72933,0.88934 1.02533,1.38267 0.90667,0.53333 1.716,1.216 2.38134,2.024 0.38533,0.42667 0.728,0.888 1.02533,1.38267 0.90533,0.532 1.71467,1.21333 2.38,2.02266 0.38533,0.42534 0.72933,0.888 1.02533,1.38267 0.90667,0.53333 1.716,1.21467 2.38,2.02267 0.38667,0.42666 0.72934,0.88933 1.02667,1.384 0.15733,0.092 0.292,0.21333 0.444,0.31466 l 0,125.98533 c 0,23.63334 -19.15867,42.792 -42.79066,42.792" />
  <path
     inkscape:connector-curvature="0"
     id="path64"
     style="fill:#393536;fill-opacity:1;fill-rule:nonzero;stroke:none"
     d="m 336.84534,166.496 -0.0613,-0.0613 -148.05467,0 -0.12266,0.0613 0,148.11599 0.12266,0.0613 148.05467,0 0.0613,-0.0613 0,-148.11599" />
  <path
     inkscape:connector-curvature="0"
     id="path66"
     style="fill:#393536;fill-opacity:1;fill-rule:nonzero;stroke:none"
     d="m 358.08267,192.56666 26.488,0 c 4.88,0 8.86533,-3.98533 8.86533,-8.86533 0,-4.83467 -3.92266,-8.81867 -8.86533,-8.81867 l -26.488,0 c -4.896,0 -8.88133,3.92267 -8.88133,8.81867 0,4.88 3.98533,8.86533 8.88133,8.86533" />
  <path
     inkscape:connector-curvature="0"
     id="path68"
     style="fill:#393536;fill-opacity:1;fill-rule:nonzero;stroke:none"
     d="m 384.57067,212.76933 -26.488,0 c -4.896,0 -8.88133,3.984 -8.88133,8.81866 0,4.88 3.98533,8.864 8.88133,8.864 l 26.488,0 c 4.88,0 8.86533,-3.984 8.86533,-8.864 0,-4.89599 -3.98533,-8.81866 -8.86533,-8.81866" />
  <path
     inkscape:connector-curvature="0"
     id="path70"
     style="fill:#393536;fill-opacity:1;fill-rule:nonzero;stroke:none"
     d="m 384.57067,250.67066 -26.488,0 c -4.896,0 -8.88133,3.908 -8.88133,8.80267 0,4.88133 3.98533,8.86533 8.88133,8.86533 l 26.488,0 c 4.88,0 8.86533,-3.984 8.86533,-8.86533 0,-4.83467 -3.98533,-8.80267 -8.86533,-8.80267" />
  <path
     inkscape:connector-curvature="0"
     id="path72"
     style="fill:#393536;fill-opacity:1;fill-rule:nonzero;stroke:none"
     d="m 384.57067,288.55599 -26.488,0 c -4.896,0 -8.88133,3.98534 -8.88133,8.804 0,4.88 3.98533,8.86534 8.88133,8.86534 l 26.488,0 c 4.88,0 8.86533,-3.98534 8.86533,-8.86534 0,-4.81866 -3.98533,-8.804 -8.86533,-8.804" />
  <path
     inkscape:connector-curvature="0"
     id="path74"
     style="fill:#393536;fill-opacity:1;fill-rule:nonzero;stroke:none"
     d="m 214.72268,145.19733 0,-26.47333 c 0,-4.89467 -3.96934,-8.88 -8.86534,-8.88 -4.88,0 -8.804,3.98533 -8.804,8.88 l 0,26.47333 c 0,4.896 3.924,8.88 8.804,8.88 4.896,0 8.86534,-3.984 8.86534,-8.88" />
  <path
     inkscape:connector-curvature="0"
     id="path76"
     style="fill:#393536;fill-opacity:1;fill-rule:nonzero;stroke:none"
     d="m 234.94134,118.724 0,26.47333 c 0,4.896 3.984,8.88 8.864,8.88 4.89733,0 8.82,-3.984 8.82,-8.88 l 0,-26.47333 c 0,-4.89467 -3.92267,-8.88 -8.82,-8.88 -4.88,0 -8.864,3.98533 -8.864,8.88" />
  <path
     inkscape:connector-curvature="0"
     id="path78"
     style="fill:#393536;fill-opacity:1;fill-rule:nonzero;stroke:none"
     d="m 272.82667,118.724 0,26.47333 c 0,4.896 3.98534,8.88 8.86534,8.88 4.83466,0 8.82,-3.984 8.82,-8.88 l 0,-26.47333 c 0,-4.89467 -3.98534,-8.88 -8.82,-8.88 -4.88,0 -8.86534,3.98533 -8.86534,8.88" />
  <path
     inkscape:connector-curvature="0"
     id="path80"
     style="fill:#393536;fill-opacity:1;fill-rule:nonzero;stroke:none"
     d="m 310.71334,118.724 0,26.47333 c 0,4.896 3.984,8.88 8.88,8.88 4.88133,0 8.86667,-3.984 8.86667,-8.88 l 0,-26.47333 c 0,-4.89467 -3.98534,-8.88 -8.86667,-8.88 -4.896,0 -8.88,3.98533 -8.88,8.88" />
  <path
     inkscape:connector-curvature="0"
     id="path82"
     style="fill:#393536;fill-opacity:1;fill-rule:nonzero;stroke:none"
     d="m 214.72268,362.39866 0,-26.488 c 0,-4.88133 -3.96934,-8.86533 -8.86534,-8.86533 -4.88,0 -8.804,3.984 -8.804,8.86533 l 0,26.488 c 0,4.88 3.924,8.86533 8.804,8.86533 4.896,0 8.86534,-3.98533 8.86534,-8.86533" />
  <path
     inkscape:connector-curvature="0"
     id="path84"
     style="fill:#393536;fill-opacity:1;fill-rule:nonzero;stroke:none"
     d="m 234.94134,335.91066 0,26.488 c 0,4.88 3.984,8.86533 8.864,8.86533 4.89733,0 8.82,-3.98533 8.82,-8.86533 l 0,-26.488 c 0,-4.88133 -3.92267,-8.86533 -8.82,-8.86533 -4.88,0 -8.864,3.984 -8.864,8.86533" />
  <path
     inkscape:connector-curvature="0"
     id="path86"
     style="fill:#393536;fill-opacity:1;fill-rule:nonzero;stroke:none"
     d="m 272.82667,335.91066 0,26.488 c 0,4.88 3.98534,8.86533 8.86534,8.86533 4.83466,0 8.82,-3.98533 8.82,-8.86533 l 0,-26.488 c 0,-4.88133 -3.98534,-8.86533 -8.82,-8.86533 -4.88,0 -8.86534,3.984 -8.86534,8.86533" />
  <path
     inkscape:connector-curvature="0"
     id="path88"
     style="fill:#393536;fill-opacity:1;fill-rule:nonzero;stroke:none"
     d="m 310.71334,335.91066 0,26.488 c 0,4.88 3.984,8.86533 8.88,8.86533 4.88133,0 8.86667,-3.98533 8.86667,-8.86533 l 0,-26.488 c -0.0627,-4.88133 -3.98534,-8.86533 -8.86667,-8.86533 -4.896,0 -8.88,3.984 -8.88,8.86533" />
  <path
     inkscape:connector-curvature="0"
     id="path90"
     style="fill:#393536;fill-opacity:1;fill-rule:nonzero;stroke:none"
     d="m 140.88134,192.56666 26.54934,0 c 4.81866,0 8.804,-3.98533 8.804,-8.86533 0,-4.83467 -3.98534,-8.81867 -8.86534,-8.81867 l -26.488,0 c -4.88133,0 -8.86533,3.92267 -8.86533,8.81867 0,4.88 3.984,8.86533 8.86533,8.86533" />
  <path
     inkscape:connector-curvature="0"
     id="path92"
     style="fill:#393536;fill-opacity:1;fill-rule:nonzero;stroke:none"
     d="m 167.36934,212.76933 -26.488,0 c -4.88133,0 -8.86533,3.92267 -8.86533,8.81866 0,4.88 3.984,8.864 8.86533,8.864 l 26.488,0 c 4.88,0 8.86534,-3.984 8.86534,-8.864 0,-4.89599 -3.98534,-8.81866 -8.86534,-8.81866" />
  <path
     inkscape:connector-curvature="0"
     id="path94"
     style="fill:#393536;fill-opacity:1;fill-rule:nonzero;stroke:none"
     d="m 167.36934,250.67066 -26.488,0 c -4.88133,0 -8.86533,3.908 -8.86533,8.80267 0,4.88133 3.984,8.86533 8.86533,8.86533 l 26.488,0 c 4.88,0 8.86534,-3.984 8.86534,-8.86533 0,-4.83467 -3.98534,-8.80267 -8.86534,-8.80267" />
  <path
     inkscape:connector-curvature="0"
     id="path96"
     style="fill:#393536;fill-opacity:1;fill-rule:nonzero;stroke:none"
     d="m 167.36934,288.55599 -26.488,0 c -4.88133,0 -8.86533,3.98534 -8.86533,8.804 0,4.88 3.984,8.86534 8.86533,8.86534 l 26.488,0 c 4.88,0 8.86534,-3.98534 8.86534,-8.86534 0,-4.81866 -3.98534,-8.804 -8.86534,-8.804" />
</svg>
